<svg xmlns="http://www.w3.org/2000/svg" width="103" height="26" viewBox="0 0 103 26">
    <g fill="#FFF" fill-rule="evenodd">
        <path d="M13.641 18.266l-6.12.009a.278.278 0 0 0-.278.277v1.585c0 .153.125.277.278.277h3.971v2.103c-.381.288-.922.566-1.615.828a6.569 6.569 0 0 1-2.327.428 6.1 6.1 0 0 1-2.583-.563 3.881 3.881 0 0 1-1.81-1.687c-.418-.765-.63-1.737-.63-2.888 0-.933.177-1.81.528-2.605.2-.453.49-.874.857-1.255.361-.374.847-.682 1.444-.915.6-.234 1.33-.354 2.165-.354.69 0 1.326.113 1.889.336.55.217.977.507 1.267.862.297.363.552.878.758 1.528a.278.278 0 0 0 .333.186l1.725-.442a.282.282 0 0 0 .172-.13.282.282 0 0 0 .028-.213c-.26-.943-.648-1.723-1.151-2.317-.508-.598-1.215-1.07-2.1-1.402-.873-.326-1.858-.492-2.93-.492-1.476 0-2.802.29-3.94.859-1.151.577-2.047 1.471-2.66 2.658A8.22 8.22 0 0 0 0 18.746c0 1.367.31 2.624.922 3.735.616 1.12 1.54 1.988 2.747 2.58 1.192.583 2.534.88 3.99.88a9.516 9.516 0 0 0 3.167-.545 11.366 11.366 0 0 0 2.98-1.62.277.277 0 0 0 .112-.222v-5.01a.279.279 0 0 0-.277-.278M21.352 15.724c-.658-.38-1.318-.57-1.961-.57-.467 0-.9.125-1.288.374-.228.147-.461.373-.701.686v-.563a.277.277 0 0 0-.278-.277h-1.597a.277.277 0 0 0-.277.277v9.782c0 .153.124.277.277.277H17.3a.276.276 0 0 0 .277-.277v-5.12c0-.668.095-1.289.282-1.848a1.488 1.488 0 0 1 1.442-1.044c.383 0 .776.11 1.167.325a.276.276 0 0 0 .391-.14l.611-1.54a.277.277 0 0 0-.119-.342M24.198 15.374h-1.774a.278.278 0 0 0-.277.277v9.782c0 .153.124.278.277.278h1.774a.279.279 0 0 0 .278-.278V15.65a.278.278 0 0 0-.278-.277M24.198 11.652h-1.774a.278.278 0 0 0-.277.278v1.907c0 .153.124.277.277.277h1.774a.277.277 0 0 0 .278-.277V11.93a.279.279 0 0 0-.278-.278M34.648 11.652h-1.764a.278.278 0 0 0-.277.278v4.155a3.95 3.95 0 0 0-.8-.53c-.53-.267-1.14-.402-1.81-.402a4.7 4.7 0 0 0-2.481.676c-.743.452-1.307 1.109-1.677 1.954-.36.826-.545 1.757-.545 2.768 0 1.04.204 1.975.606 2.78a4.61 4.61 0 0 0 4.176 2.6c1.083 0 1.97-.327 2.649-.976v.478c0 .154.124.277.277.277h1.646a.277.277 0 0 0 .277-.277V11.93a.278.278 0 0 0-.277-.278m-4.405 12.362c-.693 0-1.281-.276-1.795-.84-.515-.565-.776-1.447-.776-2.623 0-1.22.244-2.116.724-2.662.479-.545 1.056-.81 1.768-.81.731 0 1.33.277 1.832.847.503.57.758 1.5.758 2.763 0 1.139-.248 1.988-.74 2.525-.491.537-1.07.8-1.771.8M50.055 18.347a.278.278 0 0 0-.197-.08l-6.12.008a.277.277 0 0 0-.277.278v1.584c0 .153.124.278.277.278h3.97v2.102c-.38.288-.922.566-1.614.827a6.546 6.546 0 0 1-2.326.43c-.908 0-1.777-.19-2.584-.564a3.873 3.873 0 0 1-1.809-1.687c-.42-.765-.632-1.737-.632-2.888 0-.932.178-1.81.529-2.604.202-.453.49-.876.857-1.256.36-.374.846-.681 1.444-.915.602-.235 1.33-.353 2.165-.353.691 0 1.327.112 1.889.335.55.218.976.508 1.266.862.3.363.554.878.76 1.529a.276.276 0 0 0 .333.184l1.725-.442a.273.273 0 0 0 .17-.13.283.283 0 0 0 .029-.213c-.26-.943-.647-1.722-1.15-2.315-.509-.599-1.216-1.07-2.1-1.403-.873-.326-1.859-.492-2.932-.492-1.475 0-2.8.29-3.938.86-1.152.576-2.047 1.47-2.66 2.657a8.214 8.214 0 0 0-.913 3.807c0 1.368.31 2.624.921 3.735.617 1.12 1.542 1.988 2.748 2.579 1.192.584 2.534.88 3.99.88a9.48 9.48 0 0 0 3.168-.545c1.02-.36 2.022-.905 2.98-1.619a.277.277 0 0 0 .112-.222v-5.011a.28.28 0 0 0-.081-.196M60.625 24.207c-.072-.39-.11-1.356-.11-2.873v-2.21c0-.764-.03-1.283-.093-1.587-.116-.502-.322-.922-.615-1.255-.294-.331-.748-.607-1.348-.82-.585-.205-1.35-.31-2.27-.31-.926 0-1.755.122-2.464.36-.728.246-1.297.606-1.69 1.07-.388.458-.67 1.063-.837 1.798a.277.277 0 0 0 .235.337l1.734.222.037.001a.278.278 0 0 0 .267-.203c.171-.626.43-1.062.77-1.297.35-.239.918-.36 1.691-.36.823 0 1.444.168 1.845.499.265.22.4.627.4 1.213 0 .04 0 .116-.003.225-.661.193-1.642.361-2.922.503-.712.082-1.254.167-1.612.255-.504.132-.96.326-1.359.579a3.063 3.063 0 0 0-1.008 1.046 2.832 2.832 0 0 0-.388 1.454c0 .898.345 1.646 1.025 2.224.666.566 1.618.853 2.83.853.725 0 1.415-.114 2.049-.339.517-.182 1.057-.474 1.606-.868.071.306.173.587.309.84.047.09.142.146.244.146h1.854a.28.28 0 0 0 .238-.42 3.303 3.303 0 0 1-.415-1.083m-7.293-1.4c0-.231.064-.438.197-.628.134-.194.322-.337.575-.44.28-.114.778-.22 1.482-.315 1.075-.143 1.941-.314 2.582-.513v.22c0 .683-.086 1.2-.255 1.533-.225.435-.57.771-1.054 1.027-.49.256-1.06.387-1.694.387-.622 0-1.091-.128-1.397-.38-.294-.24-.436-.532-.436-.89M64.086 15.374h-1.774a.277.277 0 0 0-.277.277v9.782c0 .153.124.278.277.278h1.774a.279.279 0 0 0 .278-.278V15.65a.278.278 0 0 0-.278-.277M64.086 11.652h-1.774a.278.278 0 0 0-.277.278v1.907c0 .153.124.277.277.277h1.774a.277.277 0 0 0 .278-.277V11.93a.279.279 0 0 0-.278-.278M74.778 17.748a3.401 3.401 0 0 0-.603-1.334c-.293-.384-.731-.693-1.305-.923a4.934 4.934 0 0 0-1.842-.338c-1.25 0-2.274.383-3.054 1.14v-.642a.278.278 0 0 0-.278-.277H66.1a.277.277 0 0 0-.277.277v9.782c0 .153.124.278.277.278h1.774a.278.278 0 0 0 .278-.278v-5.342c0-1.16.242-1.946.72-2.336.504-.41 1.085-.61 1.782-.61.422 0 .791.088 1.098.263.3.169.5.387.615.665.124.3.187.774.187 1.41v5.95c0 .153.124.278.278.278h1.773a.277.277 0 0 0 .277-.278v-6.015c0-.794-.033-1.34-.104-1.67M84.026 12.816a74.254 74.254 0 0 0-3.629 2.139 80.679 80.679 0 0 1-.556 1.678 102.742 102.742 0 0 1-.663 1.885 56.295 56.295 0 0 1 3.78-1.822c.11-.362.212-.717.313-1.064a102.593 102.593 0 0 0 .53-1.937c.08-.3.153-.593.225-.88M84.64 8.497a110.43 110.43 0 0 0-3.295 2.37 32.066 32.066 0 0 1-.268 1.23 56.12 56.12 0 0 1-.357 1.413 77.134 77.134 0 0 1 1.673-1.097c.293-.187.592-.375.895-.564.308-.191.621-.383.94-.577a37.978 37.978 0 0 0 .412-2.775M82.43 18.575a49.442 49.442 0 0 0-3.841 1.636 166.636 166.636 0 0 1-1.483 3.983c-.19.493-.388.996-.59 1.51a26.593 26.593 0 0 1 1.856-.493 29.837 29.837 0 0 1 2.092-.41 196.616 196.616 0 0 0 1.09-3.342 134.765 134.765 0 0 0 .876-2.884M90.305 4.786a162.49 162.49 0 0 0-2.282 1.447 128.44 128.44 0 0 0-2.034 1.34 19.19 19.19 0 0 1-.044.63 34.741 34.741 0 0 1-.15 1.411c-.034.258-.071.522-.112.794a104.235 104.235 0 0 1 2.22-1.257 111.294 111.294 0 0 1 2.528-1.355c0-.294 0-.578-.002-.854a24.638 24.638 0 0 0-.065-1.5 20.982 20.982 0 0 0-.06-.656M89.915 16.285a74.894 74.894 0 0 0-4.565 1.28c-.44.139-.867.28-1.283.424a153.493 153.493 0 0 1-.834 3.036 176.819 176.819 0 0 1-1.059 3.541 45.692 45.692 0 0 1 4.481-.272 59.705 59.705 0 0 1 1.826.006 156.176 156.176 0 0 0 1.166-6.277c.096-.597.186-1.176.268-1.738M100.326 4.904a216.652 216.652 0 0 0-4.269 1.757c-.628.267-1.238.531-1.828.79-.571.25-1.125.499-1.663.743.005.374.007.76.003 1.161-.003.412-.011.838-.026 1.28a65.41 65.41 0 0 1-.163 2.965 133.766 133.766 0 0 1 4.073-1.09c.774-.194 1.58-.39 2.422-.589.878-.205 1.797-.413 2.76-.625a66.017 66.017 0 0 0-.63-3.576 42.752 42.752 0 0 0-.679-2.816M98.444 0C97.836.34 97.246.675 96.672 1a209.028 209.028 0 0 0-4.514 2.65 23.218 23.218 0 0 1 .291 2.2c.025.284.046.578.063.88a162.322 162.322 0 0 1 3.313-1.612 237.894 237.894 0 0 1 4.003-1.845 24.469 24.469 0 0 0-.687-1.817A19.278 19.278 0 0 0 98.444 0M101.99 13.999c-1.034.152-2.017.305-2.954.458a132.423 132.423 0 0 0-4.832.874c-.696.14-1.367.28-2.013.423a124.045 124.045 0 0 1-.456 3.897 165.535 165.535 0 0 1-.705 4.742c.736.039 1.503.09 2.308.155.843.068 1.728.15 2.658.248.98.103 2.014.224 3.108.365 1.158.15 2.388.322 3.699.52a207.68 207.68 0 0 0-.148-3.507 158.03 158.03 0 0 0-.19-3.076 134.04 134.04 0 0 0-.224-2.707c-.078-.83-.162-1.628-.251-2.392"/>
    </g>
</svg>
