<svg enable-background="new 0 0 134.5 134.2" viewBox="0 0 134.5 134.2" xmlns="http://www.w3.org/2000/svg"><g fill="#333333"><path d="m39 65c-1.5.9-3.1 1.7-4.6 2.6-1.5.8-2.9 1.7-4.3 2.5s-2.8 1.7-4.1 2.5-2.6 1.6-3.9 2.4c-.4 1.2-.8 2.5-1.2 3.8s-.9 2.7-1.4 4c-.5 1.4-1 2.8-1.5 4.3s-1.1 3-1.6 4.5c1.3-.7 2.7-1.4 4.1-2.1s2.8-1.4 4.3-2.1l4.5-2.1c1.6-.7 3.2-1.4 4.8-2.2.5-1.7 1-3.4 1.5-5s.9-3.2 1.3-4.7.8-3 1.2-4.4c.3-1.3.6-2.7.9-4"/><path d="m41.9 44.8c-1.4 1-2.8 1.9-4.1 2.9-1.3.9-2.6 1.9-3.9 2.8s-2.5 1.8-3.8 2.7c-1.2.9-2.4 1.8-3.6 2.7-.2.9-.4 1.8-.6 2.8s-.4 2-.7 3c-.2 1-.5 2.1-.8 3.2s-.6 2.2-.9 3.4c1.3-.8 2.5-1.7 3.8-2.6s2.6-1.7 4-2.6 2.8-1.8 4.2-2.6c1.4-.9 2.9-1.8 4.4-2.7.2-1.2.4-2.5.6-3.6.2-1.2.4-2.3.5-3.4.2-1.1.3-2.1.4-3.1.3-1 .4-2 .5-2.9"/><path d="m31.5 92c-1.7.6-3.3 1.3-4.9 1.9s-3.1 1.3-4.6 1.9-2.9 1.3-4.4 1.9c-1.4.6-2.8 1.3-4.1 1.9-.7 1.9-1.4 3.8-2.1 5.8s-1.5 4.1-2.3 6.2c-.8 2.2-1.7 4.4-2.5 6.6-.9 2.3-1.8 4.7-2.8 7.1l4.2-1.2c1.5-.4 3-.8 4.5-1.1 1.5-.4 3.1-.7 4.7-1s3.3-.6 5.1-.9c.9-2.8 1.8-5.5 2.7-8.1.8-2.6 1.6-5.1 2.4-7.5s1.5-4.7 2.2-7c.7-2.2 1.3-4.4 1.9-6.5"/><path d="m68.4 27.4c-1.9 1.2-3.7 2.3-5.5 3.5-1.8 1.1-3.5 2.2-5.2 3.3s-3.3 2.1-4.9 3.2c-1.6 1-3.1 2.1-4.6 3.1-.1 1-.1 1.9-.2 3-.1 1-.2 2.1-.3 3.2s-.2 2.3-.4 3.4c-.2 1.2-.3 2.4-.5 3.7 1.6-1 3.3-1.9 5-2.9 1.8-1 3.5-2 5.4-3s3.8-2.1 5.7-3.1c2-1.1 4-2.2 6.1-3.2 0-1.4 0-2.7 0-4s-.1-2.5-.1-3.7-.1-2.3-.2-3.4-.2-2.1-.3-3.1"/><path d="m66.6 81.2c-2.7.7-5.3 1.3-7.8 2-2.4.7-4.8 1.3-7.1 2-2.2.7-4.4 1.3-6.5 2s-4.1 1.3-6 2c-.6 2.2-1.2 4.5-1.8 6.8-.7 2.4-1.3 4.9-2.1 7.4-.7 2.6-1.5 5.2-2.3 8s-1.7 5.7-2.6 8.6c2.1-.2 4.2-.4 6.4-.6s4.6-.3 7-.4c2.5-.1 5-.2 7.7-.2h8.5c.8-3.7 1.5-7.3 2.1-10.7s1.2-6.6 1.8-9.8c.5-3.1 1-6 1.5-8.9.4-2.8.8-5.5 1.2-8.2"/><path d="m115.4 27.9c-3.6 1.5-7.2 2.9-10.5 4.3-3.3 1.3-6.4 2.7-9.5 4-2.9 1.2-5.8 2.5-8.6 3.7-2.7 1.2-5.3 2.3-7.8 3.5v5.4c0 1.9-.1 3.9-.1 6-.1 2.1-.2 4.3-.3 6.6s-.3 4.8-.5 7.3c2.9-.8 5.9-1.7 9-2.5 3.2-.9 6.6-1.7 10.1-2.6 3.6-.9 7.4-1.8 11.3-2.8 4.1-1 8.4-1.9 12.9-2.9-.5-3.1-.9-6-1.4-8.9-.5-2.7-1-5.4-1.5-7.9-.5-2.4-1-4.8-1.6-7-.4-2.1-1-4.2-1.5-6.2"/><path d="m106.6 5c-2.9 1.6-5.6 3.2-8.3 4.7-2.6 1.5-5.1 2.9-7.6 4.4-2.4 1.4-4.8 2.8-7 4.1s-4.4 2.6-6.5 3.9c.2 1 .4 2 .5 3.1.2 1.1.3 2.2.5 3.4.1 1.2.3 2.5.4 3.8s.2 2.7.3 4.1c2.4-1.2 4.9-2.4 7.4-3.7 2.6-1.3 5.3-2.6 8.1-3.9 2.9-1.4 5.8-2.8 8.9-4.2 3.2-1.5 6.5-3 9.9-4.5-.5-1.6-1.1-3-1.6-4.5-.5-1.4-1.1-2.7-1.6-4-.5-1.2-1.1-2.4-1.6-3.6-.7-1-1.3-2.1-1.8-3.1"/><path d="m123.2 70.5c-4.8.7-9.5 1.4-13.8 2.2-4.2.7-8.2 1.4-12 2.1-3.7.7-7.2 1.3-10.6 2-3.3.7-6.4 1.3-9.4 2-.3 2.8-.6 5.7-.9 8.7-.4 3.1-.8 6.3-1.2 9.6-.5 3.4-1 6.9-1.5 10.6-.5 3.8-1.2 7.6-1.8 11.7 3.4.2 7 .4 10.8.7 4 .3 8.1.7 12.5 1.2 4.6.5 9.4 1.1 14.6 1.7 5.4.7 11.2 1.5 17.3 2.4-.2-5.7-.4-11.2-.7-16.4-.3-5-.6-9.8-.9-14.4-.3-4.4-.7-8.6-1-12.7-.6-4.1-1-7.8-1.4-11.4"/></g></svg>