<svg xmlns="http://www.w3.org/2000/svg" width="42" height="42" viewBox="0 0 42 42">
    <path fill="#757575" fill-rule="evenodd" d="M36.617 0H5.383C2.425 0 0 2.426 0 5.383v31.234C0 39.574 2.425 42 5.383 42h31.234C39.575 42 42 39.574 42 36.617V5.383C42 2.426 39.575 0 36.617 0zm-22.18 20.284V33.25H8.75V16.887h5.688v3.397zm-2.855-5.835a2.866 2.866 0 1 1 0-5.733 2.866 2.866 0 0 1 0 5.733zm21.668 9.876v8.925h-4.9v-7.948c0-1.903-.206-4.35-2.814-4.35-2.648 0-3.049 2.071-3.049 4.213v8.085h-4.724V16.888h4.55v2.187h.048c.679-1.225 2.341-2.19 4.817-2.19 4.171 0 5.589 1.973 5.977 5.06.092.724.127 1.505.127 2.38h-.032z"/>
</svg>
