<svg xmlns="http://www.w3.org/2000/svg" width="43" height="42" viewBox="0 0 43 42">
    <path fill="#757575" fill-rule="evenodd" d="M36.928 0c2.958 0 5.383 2.425 5.383 5.383v31.234c0 2.958-2.425 5.383-5.383 5.383H5.694C2.737 42 .311 39.575.311 36.617V5.383C.311 2.425 2.737 0 5.694 0h31.234zM34.89 32.17c.466-.504.548-1.177-.28-1.89-.814-.702-2.076-.58-3.054-.848-3.244-.891.418-7.521 1.184-9.17 1.179-2.534 4.325-8.84-.615-9.686-.96-.165-1.977-.06-2.853.164-1.056.27-1.195.735-2.475-.294-.913-.734-1.716-1.256-2.938-.904-1.139.33-1.577 1.288-2.533 1.803-.983.531-1.625.268-2.47-.224-.928-.542-2.13-1.085-3.206-1.182-4.21-.38-5.375 5.566-6.544 8.416-.655 1.599-.964 3.293-1.481 4.936-.67 2.127-1.329 4.116-.634 6.327 0 0 1.294 2.811 5.551 1.673 1.556-.416 1.963-2.157 2.277-3.523a24.54 24.54 0 0 1 1.715-4.957c.651-1.385 1.115-2.845 1.724-4.247.369-.849.693-2.178 1.888-1.99 3.117.487-1.403 7.421-1.923 10.401-.112.646.001 1.2.575 1.617.755.548 1.903.393 2.532-.136.842-.71 1.619-1.993 2.08-2.886 0 0 2.494-5.483 2.993-6.526.46-.958 1.02-2.139 1.685-2.961.692-.855 1.745-.85 2.138.166.376.967-.583 2.3-1.025 3.092-.563 1.005-1.122 2.005-1.689 2.999-1.887 3.307-2.838 8.103 1.466 9.997 1.35.593 3.064.987 4.515.607.534-.14 1.064-.413 1.397-.774z"/>
</svg>
