<svg xmlns="http://www.w3.org/2000/svg" width="42" height="42" viewBox="0 0 42 42">
    <path fill="#757575" fill-rule="evenodd" d="M36.617 0H5.383C2.425 0 0 2.425 0 5.383v31.234C0 39.575 2.425 42 5.383 42h31.234C39.575 42 42 39.575 42 36.617V5.383C42 2.425 39.575 0 36.617 0zM31.34 15.98a13.362 13.362 0 0 1-.349 3.7C29.64 25.445 24.515 31 16.177 31a15.73 15.73 0 0 1-8.178-2.269c.418.048.842.072 1.275.072 2.499 0 4.798-.806 6.624-2.163-2.334-.04-4.303-1.5-4.982-3.505.326.059.66.092 1.002.092.49 0 .958-.063 1.408-.178-1.797-.345-3.252-1.54-3.903-3.124a4.77 4.77 0 0 1-.353-1.83v-.063c.73.379 1.531.606 2.404.633-1.43-.906-2.378-2.452-2.378-4.203 0-.925.26-1.793.718-2.539 2.63 3.055 6.559 5.066 10.992 5.277a4.936 4.936 0 0 1-.137-1.15c0-2.79 2.387-5.05 5.333-5.05 1.535 0 2.92.612 3.891 1.594a10.991 10.991 0 0 0 3.39-1.227c-.401 1.18-1.244 2.17-2.347 2.795A11.144 11.144 0 0 0 34 13.367a10.518 10.518 0 0 1-2.659 2.613z"/>
</svg>
