<svg xmlns="http://www.w3.org/2000/svg" width="43" height="42" viewBox="0 0 43 42">
    <path fill="#757575" fill-rule="evenodd" d="M37.158 0H5.924C2.966 0 .54 2.425.54 5.383v31.234C.541 39.575 2.966 42 5.924 42h31.234c2.957 0 5.383-2.425 5.383-5.383V5.383C42.541 2.425 40.115 0 37.158 0zM33.42 15.799c-1.34 7.217-8.834 13.327-11.088 14.722-2.255 1.394-4.311-.56-5.056-2.037-.854-1.685-3.413-10.822-4.082-11.578-.67-.759-2.68.756-2.68.756L9.54 16.44s4.082-4.654 7.188-5.24c3.293-.613 3.288 4.833 4.082 7.857.765 2.927 1.28 4.598 1.95 4.598.67 0 1.95-1.63 3.35-4.132 1.403-2.503-.06-4.715-2.804-3.142 1.098-6.283 11.456-7.794 10.115-.582z"/>
</svg>
