<svg xmlns="http://www.w3.org/2000/svg" width="43" height="42" viewBox="0 0 43 42">
    <g fill="#757575" fill-rule="evenodd">
        <path d="M18.76 16.578v1.915l.002 6.298 7.57-4.091-4.158-2.262z"/>
        <path d="M37.273 0H6.039C3.08 0 .656 2.425.656 5.383v31.234C.656 39.575 3.08 42 6.039 42h31.234c2.957 0 5.383-2.425 5.383-5.383V5.383C42.656 2.425 40.23 0 37.273 0zm-1.617 20.294v1.807c0 2.368-.274 4.733-.274 4.733s-.269 2.014-1.11 2.9c-1.065 1.166-2.258 1.17-2.804 1.24-3.925.293-9.813.304-9.813.304s-7.288-.07-9.531-.294c-.622-.122-2.023-.084-3.093-1.25-.838-.885-1.103-2.9-1.103-2.9s-.272-2.365-.272-4.733v-2.216c0-2.365.272-4.73.272-4.73s.27-2.015 1.108-2.902c1.07-1.164 2.26-1.15 2.808-1.216 3.921-.296 9.805-.275 9.805-.275h.013s5.883-.02 9.808.273c.546.068 1.741.064 2.806 1.228.84.885 1.106 2.896 1.106 2.896s.274 2.361.274 4.726v.409z"/>
    </g>
</svg>
